<svg width="59" height="58" viewBox="0 0 59 58" fill="none" xmlns="http://www.w3.org/2000/svg">
<path d="M16.4332 49.4191C16.9746 48.592 17.5898 47.673 18.2788 46.6621C17.1961 45.0539 15.8426 43.101 14.2185 40.8035C14.0709 40.6197 13.8986 40.4589 13.7017 40.3211C13.6525 40.2751 13.6402 40.2292 13.6648 40.1832C13.6894 40.1373 13.7264 40.0913 13.7756 40.0454C15.3505 39.3561 16.6055 38.2993 17.5406 36.8748C16.8024 35.4044 16.4332 33.8421 16.4332 32.1879C16.4332 30.8554 16.6793 29.5688 17.1715 28.3281C16.0887 26.9496 14.6738 25.9962 12.9266 25.4677C11.1794 24.9393 9.43225 24.9393 7.68508 25.4677C5.93791 25.9962 4.53525 26.9496 3.47711 28.3281C2.41896 29.7066 1.88989 31.2459 1.88989 32.9461C1.88989 34.4624 2.35744 35.8639 3.29255 37.1505C4.22765 38.4371 5.43345 39.4021 6.90993 40.0454C6.95914 40.0913 6.98375 40.1373 6.98375 40.1832C6.98375 40.2292 6.95914 40.2751 6.90993 40.3211C6.71306 40.4589 6.56541 40.6197 6.46698 40.8035C4.30148 43.7903 2.67735 46.1337 1.59459 47.8339C1.15165 48.5231 0.930176 49.0975 0.930176 49.557C0.930176 50.5219 1.85298 51.349 3.69858 52.0383C5.54418 52.7275 7.7466 53.0722 10.3058 53.0722C11.9792 53.0722 13.6525 52.8884 15.3259 52.5208C15.3751 51.6018 15.7442 50.5679 16.4332 49.4191ZM40.2784 50.6598C38.9004 48.4542 36.9071 45.5593 34.2987 41.9753C34.151 41.7455 33.9541 41.5387 33.7081 41.3549C33.6589 41.309 33.6342 41.2515 33.6342 41.1826C33.6342 41.1137 33.6835 41.0563 33.7819 41.0103C35.6029 40.1832 37.0917 38.977 38.2483 37.3917C39.4048 35.8065 39.9831 34.0719 39.9831 32.1879C39.9831 30.4418 39.5033 28.8221 38.5435 27.3287C37.5838 25.8353 36.3042 24.6521 34.7047 23.7791C33.1052 22.906 31.358 22.4695 29.4632 22.4695C27.5684 22.4695 25.8212 22.906 24.2217 23.7791C22.6222 24.6521 21.3548 25.8353 20.4197 27.3287C19.4846 28.8221 19.0171 30.4418 19.0171 32.1879C19.0171 34.0719 19.5954 35.8065 20.7519 37.3917C21.9085 38.977 23.3973 40.1832 25.2183 41.0103C25.3167 41.0103 25.3659 41.0448 25.3659 41.1137C25.3659 41.1826 25.3413 41.2401 25.2921 41.286C25.046 41.5158 24.8246 41.7455 24.6277 41.9753C22.0193 45.6053 20.0506 48.5001 18.7218 50.6598C18.1804 51.5328 17.9097 52.2451 17.9097 52.7965C17.9097 53.5776 18.4265 54.3013 19.46 54.9676C20.4936 55.6339 21.8962 56.1623 23.668 56.5529C25.4398 56.9434 27.3838 57.1387 29.5001 57.1387C31.6164 57.1387 33.5604 56.9434 35.3322 56.5529C37.104 56.1623 38.5066 55.6339 39.5402 54.9676C40.5737 54.3013 41.0905 53.5776 41.0905 52.7965C41.0905 52.2451 40.8198 51.5328 40.2784 50.6598ZM55.4862 4.34227H52.8285V9.16701C52.8285 10.4996 52.324 11.6368 51.3151 12.5788C50.3062 13.5208 49.0881 13.9918 47.6608 13.9918H18.2788V14.5431C18.3281 15.0945 18.5741 15.554 19.0171 15.9216C19.46 16.2892 19.9768 16.473 20.5674 16.473H44.7817L49.8755 21.1599C50.0724 21.3897 50.3062 21.4471 50.5769 21.3323C50.8476 21.2174 50.9829 21.0221 50.9829 20.7464L50.6876 16.473H55.4862C56.126 16.473 56.6797 16.2663 57.1472 15.8527C57.6148 15.4392 57.8485 14.9107 57.8485 14.2675V6.54786C57.8485 5.95051 57.6148 5.43358 57.1472 4.99705C56.6797 4.56053 56.126 4.34227 55.4862 4.34227ZM47.6608 0H3.44019C2.80039 0 2.25901 0.206775 1.81606 0.620324C1.37312 1.03387 1.15165 1.53932 1.15165 2.13667V9.16701C1.15165 9.71841 1.37312 10.2124 1.81606 10.6489C2.25901 11.0854 2.80039 11.3037 3.44019 11.3037H8.31258L7.35287 17.0244C7.30365 17.3001 7.41439 17.4954 7.68508 17.6103C7.95577 17.7252 8.18954 17.6907 8.38641 17.5069L15.1782 11.3037H47.6608C48.3006 11.3037 48.842 11.0969 49.285 10.6834C49.7279 10.2698 49.9494 9.76436 49.9494 9.16701V2.13667C49.9494 1.53932 49.7279 1.03387 49.285 0.620324C48.842 0.206775 48.3006 0 47.6608 0ZM57.4056 47.8339C56.2736 46.0418 54.6741 43.6984 52.607 40.8035C52.4594 40.6197 52.2871 40.4589 52.0903 40.3211C52.0411 40.2751 52.0164 40.2292 52.0164 40.1832C52.0164 40.1373 52.0411 40.0913 52.0903 40.0454C53.5668 39.4021 54.7725 38.4371 55.7076 37.1505C56.6428 35.8639 57.1103 34.4624 57.1103 32.9461C57.1103 31.2459 56.5689 29.7066 55.4862 28.3281C54.4034 26.9496 53.0008 25.9962 51.2782 25.4677C49.5556 24.9393 47.8208 24.9393 46.0736 25.4677C44.3264 25.9962 42.9361 26.9496 41.9025 28.3281C42.3455 29.5688 42.567 30.8554 42.567 32.1879C42.567 33.8421 42.1978 35.4044 41.4596 36.8748C42.3947 38.2533 43.6497 39.3102 45.2246 40.0454C45.2738 40.0913 45.3108 40.1373 45.3354 40.1832C45.36 40.2292 45.3477 40.2751 45.2985 40.3211C45.1016 40.4589 44.9293 40.6197 44.7817 40.8035C43.1083 43.147 41.7549 45.0998 40.7214 46.6621C41.4104 47.673 42.0256 48.592 42.567 49.4191C43.256 50.5679 43.6251 51.6018 43.6743 52.5208C45.3477 52.8884 47.021 53.0722 48.6944 53.0722C51.2536 53.0722 53.456 52.7275 55.3016 52.0383C57.1472 51.349 58.07 50.5219 58.07 49.557C58.07 49.0975 57.8485 48.5231 57.4056 47.8339Z" fill="#EB575A"/>
</svg>
