<?xml version="1.0" encoding="utf-8"?>
<svg version="1.1" id="Layer_1" xmlns="http://www.w3.org/2000/svg" xmlns:xlink="http://www.w3.org/1999/xlink" x="0px" y="0px"
	 viewBox="-290 381 31 31" xml:space="preserve">
<g>
	<path fill="#EB575A" d="M-274.5,411.4c-8.3,0-15-6.7-15-15s6.7-15,15-15s15,6.7,15,15S-266.2,411.4-274.5,411.4z M-274.5,382.3
		c-7.8,0-14.1,6.3-14.1,14.1c0,7.8,6.3,14.1,14.1,14.1c7.8,0,14.1-6.3,14.1-14.1C-260.4,388.6-266.7,382.3-274.5,382.3z"/>
</g>
<g>
	<path fill="#EB575A" d="M-277.1,402L-277.1,402c-0.5,0-0.9-0.2-1.2-0.5l-4-4.4c-0.6-0.7-0.6-1.7,0.1-2.3c0.7-0.6,1.7-0.6,2.3,0.1
		l2.9,3.1l6.9-6.9c0.6-0.6,1.7-0.6,2.3,0c0.6,0.6,0.6,1.7,0,2.3l-8.1,8.1C-276.2,401.9-276.7,402-277.1,402z"/>
</g>
</svg>
