<svg width="37" height="60" viewBox="0 0 37 60" fill="none" xmlns="http://www.w3.org/2000/svg">
<path d="M5.91846 18.153L13.1991 13.4844L35.102 47.6403L27.8213 52.3089L5.91846 18.153Z" fill="#F9DFDC"/>
<path d="M5.69656 5.95814L2.21106 8.19317C1.16305 8.86519 0.858268 10.2595 1.5303 11.3075L3.37667 14.1868C4.0487 15.2348 5.44307 15.5396 6.49108 14.8675L9.97657 12.6325C11.0246 11.9605 11.3294 10.5661 10.6573 9.51816L8.81097 6.63889C8.13894 5.5909 6.74457 5.28612 5.69656 5.95814Z" fill="#F9AEB0"/>
<path d="M7.13861 5.61735C7.035 8.93814 6.13004 12.1846 4.50086 15.0802C4.2724 15.002 4.06019 14.8826 3.87469 14.728C3.67682 14.5793 3.50717 14.3964 3.37375 14.1879L1.52654 11.3076C1.2028 10.8018 1.09269 10.1883 1.22032 9.60153C1.34795 9.01473 1.70293 8.50241 2.20751 8.17678L5.69841 5.93826C6.1272 5.66787 6.63439 5.54935 7.13861 5.6017V5.61735Z" fill="#EB575A"/>
<path d="M35.3696 47.7266L35.5497 51.6871C35.2018 51.6179 34.8451 51.6047 34.493 51.648C33.0606 51.8201 31.8944 52.9394 30.4777 53.2134C30.2198 53.2617 29.9568 53.2775 29.695 53.2603L28.0513 52.415L35.3696 47.7266Z" fill="#F9DFDC"/>
<path d="M5.28283 16.0038C5.06179 16.0036 4.8414 15.98 4.62535 15.9334C3.85006 15.7655 3.17226 15.2986 2.739 14.6341L0.868316 11.7303C0.435637 11.0519 0.289083 10.2299 0.460681 9.44374C0.632278 8.65764 1.10807 7.97141 1.78409 7.53503L5.26717 5.29651C5.94499 4.86176 6.76772 4.714 7.55446 4.88573C8.3412 5.05746 9.02753 5.53462 9.46252 6.21227L11.3489 9.09261C11.7815 9.77099 11.9281 10.5931 11.7565 11.3792C11.5849 12.1653 11.1091 12.8515 10.4331 13.2879L6.91087 15.5264C6.4253 15.8386 5.8601 16.0043 5.28283 16.0038ZM6.91087 6.38446C6.63297 6.38684 6.36148 6.46828 6.12816 6.61927L2.62942 8.84997C2.30169 9.06176 2.07091 9.39447 1.98735 9.77562C1.90378 10.1568 1.97421 10.5555 2.18328 10.885L4.03048 13.7653C4.24228 14.0931 4.57499 14.3238 4.95615 14.4074C5.33732 14.491 5.73606 14.4205 6.06554 14.2115L9.54862 11.9729C9.71171 11.8688 9.85265 11.7334 9.96337 11.5747C10.0741 11.416 10.1524 11.237 10.1938 11.048C10.2353 10.859 10.239 10.6636 10.2049 10.4731C10.1707 10.2826 10.0993 10.1008 9.99477 9.93792L8.15539 7.05759C8.02122 6.84985 7.83686 6.67928 7.61934 6.56163C7.40183 6.44398 7.15817 6.38305 6.91087 6.38446Z" fill="#EB575A"/>
<path d="M27.8561 53.4794L4.05371 16.356L12.6636 10.8771L28.7484 35.947C28.8105 36.0332 28.8544 36.1312 28.8774 36.2349C28.9004 36.3387 28.9021 36.446 28.8823 36.5504C28.8624 36.6548 28.8216 36.7541 28.7621 36.8422C28.7027 36.9303 28.6259 37.0054 28.5365 37.0629C28.4471 37.1203 28.347 37.159 28.2421 37.1765C28.1373 37.194 28.03 37.1899 27.9268 37.1646C27.8236 37.1393 27.7266 37.0932 27.6418 37.0292C27.557 36.9652 27.486 36.8846 27.4334 36.7923L12.1783 13.006L6.214 16.8256L28.3257 51.3114L34.29 47.5074L29.4371 39.9387C29.3378 39.7647 29.3091 39.5591 29.3568 39.3645C29.4046 39.1698 29.5252 39.0009 29.6938 38.8925C29.8623 38.7841 30.0661 38.7446 30.263 38.7819C30.4599 38.8193 30.635 38.9308 30.7521 39.0934L36.4503 47.9771L27.8561 53.4794Z" fill="#EB575A"/>
<path d="M11.3629 10.0269L3.54195 15.042C3.18897 15.2684 3.08632 15.738 3.31267 16.0909L4.73652 18.3113C4.96287 18.6643 5.4325 18.767 5.78547 18.5406L13.6064 13.5255C13.9594 13.2992 14.0621 12.8296 13.8357 12.4766L12.4119 10.2562C12.1855 9.90324 11.7159 9.80059 11.3629 10.0269Z" fill="#F9DFDC"/>
<path d="M14.0329 11.7691L14.4242 12.3796C14.5219 12.5359 14.5545 12.7241 14.515 12.9041C14.4755 13.0841 14.367 13.2414 14.2129 13.3424L6.284 18.4221C6.12777 18.5198 5.93949 18.5523 5.75952 18.5128C5.57955 18.4733 5.42222 18.3649 5.32126 18.2107L4.02979 16.1992C4.74518 16.2573 5.46413 16.1446 6.12746 15.8705C7.16361 15.5021 8.09913 14.8963 8.85913 14.1016C9.14874 13.7807 9.39921 13.4284 9.68881 13.1075C10.7611 11.9022 12.5614 11.1899 14.0329 11.7691Z" fill="#F9DFDC"/>
<path d="M35.065 56.8995C34.7931 56.9061 34.5239 56.8442 34.2823 56.7195L27.8797 53.4086C27.6949 53.3132 27.5557 53.1482 27.4926 52.95C27.4294 52.7519 27.4476 52.5368 27.5431 52.352C27.6386 52.1673 27.8036 52.028 28.0017 51.9649C28.1999 51.9018 28.415 51.92 28.5998 52.0154L35.0415 55.3341L35.9025 55.248H35.1198L34.7832 48.055C34.7832 47.8474 34.8657 47.6483 35.0125 47.5015C35.1593 47.3547 35.3583 47.2723 35.5659 47.2723C35.7735 47.2723 35.9726 47.3547 36.1194 47.5015C36.2662 47.6483 36.3486 47.8474 36.3486 48.055L36.6852 55.248C36.6894 55.4634 36.6505 55.6774 36.571 55.8776C36.4914 56.0778 36.3727 56.2602 36.2219 56.4139C36.071 56.5677 35.891 56.6899 35.6923 56.7732C35.4937 56.8566 35.2804 56.8995 35.065 56.8995Z" fill="#EB575A"/>
<path d="M18.1503 32.6356C18.0848 32.6355 18.0204 32.619 17.9629 32.5875C17.9055 32.5561 17.8569 32.5107 17.8215 32.4556L8.09237 17.2634C8.06131 17.2203 8.03936 17.1713 8.02785 17.1194C8.01634 17.0676 8.01551 17.0139 8.02542 16.9617C8.03533 16.9095 8.05577 16.8598 8.08549 16.8158C8.11521 16.7717 8.15358 16.7342 8.19828 16.7055C8.24298 16.6767 8.29306 16.6574 8.34548 16.6487C8.39789 16.6399 8.45153 16.6419 8.50314 16.6546C8.55475 16.6672 8.60324 16.6903 8.64565 16.7223C8.68807 16.7543 8.72352 16.7946 8.74985 16.8408L18.479 32.0095C18.5169 32.0686 18.5382 32.1368 18.5407 32.2069C18.5432 32.2771 18.5268 32.3466 18.4932 32.4082C18.4596 32.4698 18.41 32.5213 18.3497 32.5572C18.2893 32.593 18.2205 32.612 18.1503 32.6122V32.6356Z" fill="#EB575A"/>
<path d="M30.0238 51.1233C29.9583 51.1232 29.8939 51.1067 29.8365 51.0752C29.779 51.0438 29.7304 50.9984 29.6951 50.9433L19.9581 35.7668C19.927 35.7237 19.9051 35.6747 19.8936 35.6228C19.8821 35.5709 19.8812 35.5172 19.8911 35.465C19.9011 35.4128 19.9215 35.3632 19.9512 35.3191C19.9809 35.2751 20.0193 35.2376 20.064 35.2088C20.1087 35.1801 20.1588 35.1608 20.2112 35.152C20.2636 35.1433 20.3173 35.1453 20.3689 35.1579C20.4205 35.1706 20.469 35.1936 20.5114 35.2256C20.5538 35.2576 20.5892 35.298 20.6156 35.3441L30.3525 50.5207C30.3904 50.5797 30.4118 50.6479 30.4143 50.7181C30.4168 50.7882 30.4003 50.8578 30.3667 50.9194C30.3331 50.981 30.2835 51.0325 30.2232 51.0683C30.1629 51.1042 30.094 51.1232 30.0238 51.1233Z" fill="#EB575A"/>
<path d="M33.0534 49.1744C32.9879 49.1743 32.9235 49.1578 32.8661 49.1263C32.8086 49.0949 32.76 49.0495 32.7246 48.9944L15.7945 22.5939C15.7635 22.5508 15.7415 22.5018 15.73 22.4499C15.7185 22.3981 15.7177 22.3444 15.7276 22.2922C15.7375 22.24 15.7579 22.1903 15.7876 22.1463C15.8174 22.1022 15.8557 22.0647 15.9004 22.036C15.9451 22.0072 15.9952 21.9879 16.0476 21.9792C16.1 21.9704 16.1537 21.9724 16.2053 21.9851C16.2569 21.9977 16.3054 22.0208 16.3478 22.0528C16.3902 22.0848 16.4257 22.1251 16.452 22.1713L33.3821 48.5717C33.42 48.6308 33.4413 48.699 33.4438 48.7692C33.4463 48.8393 33.4299 48.9088 33.3963 48.9705C33.3627 49.0321 33.3131 49.0835 33.2528 49.1194C33.1924 49.1553 33.1236 49.1743 33.0534 49.1744Z" fill="#EB575A"/>
<path d="M14.1831 19.7451C14.1176 19.745 14.0532 19.7285 13.9958 19.697C13.9384 19.6656 13.8897 19.6202 13.8544 19.5651L11.1305 15.3151C11.0809 15.228 11.0665 15.1252 11.0904 15.0279C11.1142 14.9306 11.1745 14.8461 11.2588 14.792C11.3431 14.7378 11.445 14.718 11.5434 14.7367C11.6419 14.7554 11.7294 14.8111 11.788 14.8924L14.4805 19.1425C14.5184 19.2015 14.5398 19.2697 14.5423 19.3399C14.5448 19.41 14.5283 19.4796 14.4947 19.5412C14.4611 19.6028 14.4115 19.6543 14.3512 19.6901C14.2909 19.726 14.222 19.745 14.1518 19.7451H14.1831Z" fill="#EB575A"/>
<path d="M26.0872 41.6526C26.0218 41.6525 25.9573 41.636 25.8999 41.6045C25.8425 41.5731 25.7939 41.5277 25.7585 41.4726L16.045 26.3039C16.0139 26.2608 15.992 26.2118 15.9805 26.1599C15.969 26.108 15.9681 26.0543 15.9781 26.0021C15.988 25.9499 16.0084 25.9003 16.0381 25.8562C16.0678 25.8122 16.1062 25.7747 16.1509 25.7459C16.1956 25.7172 16.2457 25.6979 16.2981 25.6891C16.3505 25.6804 16.4042 25.6824 16.4558 25.695C16.5074 25.7077 16.5559 25.7307 16.5983 25.7627C16.6407 25.7948 16.6762 25.8351 16.7025 25.8812L26.416 41.0499C26.4539 41.109 26.4752 41.1772 26.4777 41.2474C26.4802 41.3175 26.4638 41.387 26.4302 41.4487C26.3965 41.5103 26.347 41.5617 26.2866 41.5976C26.2263 41.6335 26.1574 41.6525 26.0872 41.6526Z" fill="#EB575A"/>
<path d="M15.0035 24.3552C14.938 24.3551 14.8736 24.3386 14.8162 24.3071C14.7587 24.2757 14.7101 24.2303 14.6748 24.1752L9.7828 16.5909C9.75174 16.5477 9.72979 16.4988 9.71828 16.4469C9.70677 16.395 9.70594 16.3413 9.71585 16.2891C9.72576 16.2369 9.7462 16.1873 9.77592 16.1432C9.80564 16.0992 9.84401 16.0617 9.88871 16.0329C9.93341 16.0042 9.98349 15.9849 10.0359 15.9761C10.0883 15.9674 10.142 15.9694 10.1936 15.982C10.2452 15.9947 10.2937 16.0177 10.3361 16.0497C10.3785 16.0817 10.414 16.122 10.4403 16.1682L15.3009 23.7526C15.3388 23.8116 15.3602 23.8798 15.3627 23.95C15.3652 24.0201 15.3487 24.0897 15.3151 24.1513C15.2815 24.2129 15.2319 24.2644 15.1716 24.3003C15.1113 24.3361 15.0424 24.3551 14.9722 24.3552H15.0035Z" fill="#EB575A"/>
<path d="M31.7008 50.4505C31.6353 50.4504 31.5709 50.4339 31.5135 50.4024C31.456 50.371 31.4074 50.3256 31.372 50.2705L26.5114 42.6862C26.4617 42.5991 26.4474 42.4963 26.4712 42.399C26.4951 42.3017 26.5554 42.2172 26.6397 42.163C26.724 42.1089 26.8259 42.0891 26.9243 42.1078C27.0228 42.1264 27.1103 42.1822 27.1689 42.2635L32.0608 49.8557C32.0987 49.9148 32.12 49.983 32.1225 50.0531C32.125 50.1233 32.1086 50.1928 32.075 50.2544C32.0414 50.316 31.9918 50.3675 31.9315 50.4034C31.8712 50.4393 31.8023 50.4582 31.7321 50.4584L31.7008 50.4505Z" fill="#EB575A"/>
<path d="M5.37728 19.4399C5.26542 19.4519 5.15257 19.4519 5.04071 19.4399C4.6417 19.3508 4.29336 19.1092 4.07015 18.7667L2.65343 16.5204C2.43718 16.1734 2.36524 15.7556 2.453 15.3563C2.54076 14.957 2.78125 14.6079 3.12306 14.3836L10.9502 9.3665C11.2972 9.15025 11.715 9.07831 12.1143 9.16607C12.5136 9.25383 12.8627 9.49432 13.087 9.83612L14.4802 12.0512C14.6965 12.3981 14.7684 12.8159 14.6807 13.2152C14.5929 13.6145 14.3524 13.9636 14.0106 14.1879L6.18348 19.205C5.94114 19.3553 5.66238 19.4365 5.37728 19.4399ZM11.7564 10.6814L3.92926 15.6985L5.3538 17.8823L13.1262 12.873L11.7564 10.6814Z" fill="#EB575A"/>
<path d="M32.9834 55.4831L35.3315 53.9177V56.0467L32.9834 55.4831Z" fill="#EB575A"/>
<path d="M19.3687 10.5967L27.8181 12.4436L19.1535 52.0829L10.704 50.236L19.3687 10.5967Z" fill="#F9DFDC"/>
<path d="M27.8449 1.81646L23.7999 0.932289C22.5836 0.666441 21.3821 1.43688 21.1163 2.65311L20.3859 5.99461C20.12 7.21084 20.8905 8.41231 22.1067 8.67816L26.1518 9.56232C27.368 9.82817 28.5695 9.05773 28.8354 7.8415L29.5658 4.5C29.8316 3.28377 29.0612 2.0823 27.8449 1.81646Z" fill="#F9AEB0"/>
<path d="M29.102 2.59609C26.6813 4.87192 23.7462 6.52874 20.5469 7.42535C20.4404 7.20956 20.3741 6.97615 20.3512 6.73657C20.3074 6.49329 20.3074 6.24412 20.3512 6.00084L21.0792 2.65871C21.1439 2.36704 21.2657 2.09104 21.4373 1.84652C21.609 1.602 21.8273 1.39378 22.0796 1.2338C22.332 1.07382 22.6134 0.965231 22.9078 0.914259C23.2022 0.863287 23.5038 0.870935 23.7952 0.936765L27.8496 1.82122C28.3429 1.93466 28.7839 2.21026 29.102 2.60392V2.59609Z" fill="#EB575A"/>
<path d="M19.2863 52.3367L16.6172 55.264C16.423 54.9668 16.1825 54.7026 15.9049 54.4813C14.77 53.589 13.1576 53.5577 11.9914 52.7437C11.784 52.6 11.5948 52.4318 11.4278 52.2428L10.8643 50.4817L19.2863 52.3367Z" fill="#F9DFDC"/>
<path d="M26.6289 10.3994C26.4105 10.3997 26.1926 10.3761 25.9793 10.329L21.9327 9.44452C21.5403 9.36271 21.168 9.20403 20.8372 8.97765C20.5065 8.75126 20.2238 8.46164 20.0055 8.12549C19.7872 7.78933 19.6376 7.41329 19.5654 7.01905C19.4931 6.62481 19.4996 6.22017 19.5845 5.82845L20.3124 2.48632C20.3942 2.09395 20.5529 1.72166 20.7793 1.39091C21.0057 1.06015 21.2953 0.777489 21.6315 0.559207C21.9677 0.340925 22.3437 0.191344 22.7379 0.11909C23.1322 0.0468353 23.5368 0.0533362 23.9286 0.138218L27.9752 1.02267C28.3676 1.10448 28.7399 1.26316 29.0706 1.48954C29.4014 1.71593 29.6841 2.00555 29.9024 2.34171C30.1206 2.67786 30.2702 3.0539 30.3425 3.44814C30.4147 3.84238 30.4082 4.24703 30.3234 4.63874C30.2787 4.84633 30.1535 5.02768 29.9751 5.14291C29.7968 5.25813 29.5799 5.29779 29.3724 5.25316C29.1648 5.20853 28.9834 5.08327 28.8682 4.90492C28.753 4.72658 28.7133 4.50977 28.7579 4.30218C28.832 3.9315 28.7613 3.54654 28.5604 3.22632C28.3596 2.9061 28.0437 2.67492 27.6778 2.58024L23.6311 1.69579C23.442 1.65436 23.2465 1.65066 23.0559 1.68492C22.8654 1.71917 22.6834 1.79071 22.5205 1.89541C22.3577 2.00012 22.2171 2.13594 22.1068 2.2951C21.9965 2.45425 21.9187 2.6336 21.8779 2.82288L21.1499 6.16501C21.1089 6.35633 21.1064 6.55392 21.1426 6.74621C21.1789 6.9385 21.2531 7.12163 21.361 7.28489C21.4688 7.44815 21.6082 7.58826 21.7709 7.69701C21.9335 7.80576 22.1163 7.88098 22.3084 7.91826L26.355 8.80271C26.7368 8.88423 27.1354 8.8115 27.4638 8.60037C27.7923 8.38924 28.0239 8.05683 28.1083 7.67562C28.1529 7.46804 28.2782 7.28668 28.4565 7.17146C28.6349 7.05623 28.8517 7.01657 29.0593 7.0612C29.2669 7.10583 29.4482 7.2311 29.5634 7.40944C29.6787 7.58778 29.7183 7.8046 29.6737 8.01218C29.5215 8.7013 29.1346 9.31614 28.5793 9.75159C28.0239 10.187 27.3345 10.416 26.6289 10.3994Z" fill="#EB575A"/>
<path d="M14.2539 35.6419H14.0895C13.8873 35.5969 13.7111 35.4737 13.5996 35.2991C13.4881 35.1245 13.4504 34.9128 13.4947 34.7104L19.3259 8.0282L29.3055 10.2119L27.56 18.1955C27.5154 18.4031 27.3901 18.5844 27.2118 18.6996C27.0335 18.8149 26.8166 18.8545 26.609 18.8099C26.4015 18.7653 26.2201 18.64 26.1049 18.4617C25.9896 18.2833 25.95 18.0665 25.9946 17.8589L27.4035 11.4016L20.4843 9.89102L15.0053 35.047C14.9637 35.2154 14.8673 35.3652 14.7313 35.4729C14.5953 35.5806 14.4274 35.64 14.2539 35.6419Z" fill="#EB575A"/>
<path d="M19.8873 53.268L9.90771 51.0921L12.6237 38.6863C12.6684 38.4787 12.7936 38.2974 12.972 38.1821C13.1503 38.0669 13.3671 38.0272 13.5747 38.0719C13.7823 38.1165 13.9637 38.2418 14.0789 38.4201C14.1941 38.5985 14.2338 38.8153 14.1892 39.0229L11.841 49.9024L18.6898 51.4208L25.4368 20.6842C25.4589 20.5814 25.501 20.484 25.5608 20.3975C25.6205 20.311 25.6967 20.2371 25.785 20.18C25.8733 20.123 25.972 20.0839 26.0754 20.0649C26.1788 20.046 26.285 20.0477 26.3878 20.0698C26.4906 20.0919 26.588 20.134 26.6745 20.1937C26.761 20.2535 26.8349 20.3297 26.8919 20.418C26.949 20.5063 26.9881 20.605 27.007 20.7084C27.0259 20.8118 27.0243 20.918 27.0022 21.0207L19.8873 53.268Z" fill="#EB575A"/>
<path d="M28.9657 8.70839L19.8892 6.72444C19.4795 6.6349 19.0749 6.89439 18.9853 7.30402L18.4221 9.88088C18.3325 10.2905 18.592 10.6952 19.0017 10.7847L28.0782 12.7687C28.4878 12.8582 28.8925 12.5987 28.982 12.1891L29.5453 9.61222C29.6348 9.20258 29.3753 8.79793 28.9657 8.70839Z" fill="#F9DFDC"/>
<path d="M29.6256 11.8245L29.469 12.5289C29.4278 12.7085 29.3179 12.8648 29.1628 12.9643C29.0077 13.0638 28.8198 13.0986 28.6393 13.0611L19.4424 11.0496C19.2628 11.0084 19.1065 10.8985 19.007 10.7434C18.9075 10.5883 18.8728 10.4004 18.9102 10.2199L19.419 7.87183C19.8796 8.43049 20.4674 8.87066 21.1331 9.15545C22.1248 9.62702 23.2131 9.86021 24.3109 9.8364C24.7414 9.8364 25.1641 9.74248 25.5946 9.719C27.2148 9.60942 28.9916 10.3686 29.6256 11.8245Z" fill="#F9DFDC"/>
<path d="M13.7537 59.0599C13.6366 59.0725 13.5185 59.0725 13.4014 59.0599C13.1217 59.0049 12.8623 58.8744 12.6512 58.6827C12.4402 58.4909 12.2855 58.2452 12.2039 57.972L10.0201 51.0686C9.95679 50.8703 9.97482 50.655 10.0702 50.4701C10.1656 50.2851 10.3306 50.1457 10.5289 50.0824C10.7271 50.0191 10.9424 50.0371 11.1274 50.1325C11.3123 50.2279 11.4518 50.3929 11.5151 50.5911L13.6989 57.4632H13.785L18.6378 52.1409C18.7779 51.9872 18.9733 51.8956 19.181 51.8861C19.3887 51.8765 19.5917 51.9499 19.7453 52.09C19.899 52.2301 19.9906 52.4255 20.0002 52.6332C20.0097 52.8409 19.9363 53.0439 19.7962 53.1975L14.9434 58.5199C14.7957 58.6903 14.6129 58.8267 14.4076 58.92C14.2022 59.0132 13.9792 59.0609 13.7537 59.0599Z" fill="#EB575A"/>
<path d="M18.0724 29.5913H17.9863C17.8861 29.5688 17.7987 29.5077 17.743 29.4213C17.6874 29.3349 17.6679 29.2301 17.6889 29.1295L21.5242 11.5031C21.546 11.3993 21.6082 11.3084 21.697 11.2504C21.7858 11.1924 21.894 11.1721 21.9978 11.1939C22.1016 11.2157 22.1924 11.2778 22.2504 11.3666C22.3084 11.4554 22.3287 11.5636 22.3069 11.6674L18.456 29.2782C18.4379 29.3666 18.3899 29.446 18.32 29.5031C18.2501 29.5601 18.1627 29.5913 18.0724 29.5913Z" fill="#EB575A"/>
<path d="M13.384 51.0688H13.2979C13.1976 51.0463 13.1102 50.9853 13.0545 50.8988C12.9989 50.8124 12.9794 50.7076 13.0004 50.607L16.8279 32.9884C16.8497 32.8846 16.9118 32.7937 17.0007 32.7358C17.0895 32.6778 17.1977 32.6575 17.3015 32.6793C17.4053 32.701 17.4961 32.7632 17.5541 32.852C17.6121 32.9408 17.6324 33.049 17.6106 33.1528L13.7597 50.7635C13.7404 50.8492 13.6928 50.9259 13.6247 50.9812C13.5565 51.0366 13.4718 51.0674 13.384 51.0688Z" fill="#EB575A"/>
<path d="M16.8986 51.8358H16.8281C16.7279 51.8133 16.6405 51.7523 16.5848 51.6659C16.5291 51.5795 16.5097 51.4746 16.5307 51.374L23.2307 20.7391C23.2532 20.6389 23.3143 20.5515 23.4007 20.4958C23.4871 20.4402 23.5919 20.4207 23.6926 20.4417C23.7928 20.4642 23.8802 20.5253 23.9359 20.6117C23.9915 20.6981 24.011 20.8029 23.99 20.9035L17.2821 51.5306C17.2625 51.6175 17.2138 51.6952 17.1441 51.7507C17.0743 51.8062 16.9877 51.8362 16.8986 51.8358Z" fill="#EB575A"/>
<path d="M24.3664 17.6867H24.2803C24.18 17.6642 24.0926 17.6031 24.0369 17.5167C23.9813 17.4303 23.9619 17.3255 23.9829 17.2249L25.063 12.286C25.0738 12.2346 25.0946 12.1859 25.1242 12.1425C25.1539 12.0992 25.1918 12.0621 25.2357 12.0334C25.2797 12.0047 25.3289 11.9849 25.3805 11.9752C25.4321 11.9655 25.4852 11.9661 25.5366 11.9769C25.5879 11.9877 25.6367 12.0085 25.6801 12.0381C25.7234 12.0677 25.7605 12.1056 25.7892 12.1496C25.8179 12.1936 25.8377 12.2428 25.8474 12.2944C25.8571 12.346 25.8565 12.399 25.8457 12.4504L24.7656 17.3814C24.7455 17.471 24.6944 17.5508 24.6215 17.6066C24.5485 17.6624 24.4582 17.6907 24.3664 17.6867Z" fill="#EB575A"/>
<path d="M17.2966 41.598H17.2105C17.1102 41.5755 17.0228 41.5145 16.9671 41.4281C16.9115 41.3417 16.892 41.2368 16.913 41.1362L20.7405 23.5177C20.7623 23.4139 20.8244 23.323 20.9133 23.265C21.0021 23.207 21.1103 23.1867 21.2141 23.2085C21.3178 23.2303 21.4087 23.2924 21.4667 23.3812C21.5247 23.47 21.545 23.5782 21.5232 23.682L17.6801 41.2849C17.6621 41.3733 17.614 41.4528 17.5441 41.5098C17.4742 41.5669 17.3868 41.598 17.2966 41.598Z" fill="#EB575A"/>
<path d="M21.6808 21.5219H21.6026C21.5023 21.4994 21.4149 21.4384 21.3592 21.352C21.3036 21.2656 21.2841 21.1608 21.3051 21.0602L23.2228 12.2861C23.2453 12.1858 23.3063 12.0984 23.3927 12.0427C23.4791 11.9871 23.584 11.9677 23.6846 11.9887C23.7849 12.0112 23.8723 12.0722 23.9279 12.1586C23.9836 12.245 24.003 12.3498 23.982 12.4505L22.0644 21.2167C22.0448 21.3036 21.996 21.3813 21.9263 21.4368C21.8566 21.4923 21.77 21.5223 21.6808 21.5219Z" fill="#EB575A"/>
<path d="M15.0661 51.8043H14.98C14.8797 51.7818 14.7923 51.7207 14.7367 51.6343C14.681 51.5479 14.6616 51.4431 14.6826 51.3425L16.608 42.5371C16.6298 42.4333 16.692 42.3425 16.7808 42.2845C16.8696 42.2265 16.9778 42.2062 17.0816 42.228C17.1854 42.2498 17.2763 42.3119 17.3342 42.4007C17.3922 42.4895 17.4126 42.5977 17.3908 42.7015L15.4418 51.499C15.4225 51.5847 15.375 51.6614 15.3068 51.7167C15.2387 51.7721 15.1539 51.8029 15.0661 51.8043Z" fill="#EB575A"/>
<path d="M28.2484 13.5618C28.1391 13.5734 28.0289 13.5734 27.9197 13.5618L18.8402 11.5425C18.4421 11.4507 18.0957 11.207 17.8749 10.8633C17.6541 10.5197 17.5764 10.1033 17.6583 9.70313L18.2218 7.13587C18.3136 6.73784 18.5573 6.39144 18.901 6.17062C19.2447 5.94981 19.661 5.87207 20.0612 5.95399L29.1329 7.93423C29.5309 8.026 29.8773 8.26973 30.0981 8.61338C30.319 8.95704 30.3967 9.37339 30.3148 9.77357L29.7512 12.3408C29.674 12.6834 29.4838 12.9901 29.2112 13.2116C28.9387 13.433 28.5996 13.5564 28.2484 13.5618ZM19.7246 7.48809L19.1767 10.0397L28.2171 11.9964L28.7728 9.44484L19.7246 7.48809Z" fill="#EB575A"/>
<path d="M12.1162 56.1331L14.887 56.6888L13.3764 58.1916L12.1162 56.1331Z" fill="#EB575A"/>
</svg>
