<svg width="32" height="32" viewBox="0 0 32 32" fill="none" xmlns="http://www.w3.org/2000/svg">
<g clip-path="url(#clip0_511_1695)">
<path d="M27.2 0H4.8C2.14903 0 0 2.14903 0 4.8V27.2C0 29.851 2.14903 32 4.8 32H27.2C29.851 32 32 29.851 32 27.2V4.8C32 2.14903 29.851 0 27.2 0Z" fill="#1877F2"/>
<path d="M22.225 20.625L22.9375 16H18.5V13C18.5 11.7375 19.1188 10.5 21.1063 10.5H23.125V6.5625C23.125 6.5625 21.2938 6.25 19.5438 6.25C15.8875 6.25 13.5 8.4625 13.5 12.475V16H9.4375V20.625H13.5V32H18.5V20.625H22.225Z" fill="white"/>
</g>
<defs>
<clipPath id="clip0_511_1695">
<rect width="32" height="32" rx="16" fill="white"/>
</clipPath>
</defs>
</svg>
