<svg width="34" height="34" viewBox="0 0 34 34" fill="none" xmlns="http://www.w3.org/2000/svg">
<path d="M33 16.8804C33 8.10992 25.8366 1 17 1C8.16344 1 1 8.10992 1 16.8804V17.1196C1 25.8901 8.16344 33 17 33C25.8366 33 33 25.8901 33 17.1196V16.8804Z" fill="white"/>
<path d="M8.8427 24.0329H11.8481V16.7887L7.55469 13.5927V22.7545C7.55469 23.4619 8.13216 24.0329 8.8427 24.0329Z" fill="#4285F4"/>
<path d="M22.1523 24.0329H25.1577C25.8704 24.0329 26.4457 23.4598 26.4457 22.7545V13.5927L22.1523 16.7887" fill="#34A853"/>
<path d="M22.1523 11.2491V16.7888L26.4457 13.5928V11.8883C26.4457 10.3073 24.6275 9.40606 23.3545 10.3542" fill="#FBBC04"/>
<path d="M11.8477 16.7886V11.2489L16.9998 15.0841L22.1519 11.2489V16.7886L16.9998 20.6238" fill="#EA4335"/>
<path d="M7.55469 11.8882V13.5927L11.8481 16.7887V11.249L10.646 10.3541C9.37081 9.40594 7.55469 10.3072 7.55469 11.8882Z" fill="#C5221F"/>
<path d="M33 16.8804C33 8.10992 25.8366 1 17 1C8.16344 1 1 8.10992 1 16.8804V17.1196C1 25.8901 8.16344 33 17 33C25.8366 33 33 25.8901 33 17.1196V16.8804Z" stroke="#C4CFE3" stroke-opacity="0.3" stroke-width="0.664305"/>
</svg>
