<svg width="32" height="32" viewBox="0 0 32 32" fill="none" xmlns="http://www.w3.org/2000/svg">
<path d="M32 16C32 7.16344 24.8366 0 16 0C7.16344 0 0 7.16344 0 16C0 24.8366 7.16344 32 16 32C24.8366 32 32 24.8366 32 16Z" fill="url(#paint0_linear_511_1702)"/>
<path d="M13.337 16.0409C13.337 14.5669 14.5312 13.3717 16.0048 13.3717C17.4784 13.3717 18.6733 14.5669 18.6733 16.0409C18.6733 17.5149 17.4784 18.7102 16.0048 18.7102C14.5312 18.7102 13.337 17.5149 13.337 16.0409ZM11.8944 16.0409C11.8944 18.3117 13.7347 20.1525 16.0048 20.1525C18.275 20.1525 20.1152 18.3117 20.1152 16.0409C20.1152 13.7701 18.275 11.9294 16.0048 11.9294C13.7347 11.9294 11.8944 13.7701 11.8944 16.0409ZM19.3173 11.7663C19.3172 11.9564 19.3735 12.1422 19.479 12.3002C19.5845 12.4583 19.7345 12.5815 19.9099 12.6543C20.0854 12.7271 20.2786 12.7462 20.4649 12.7092C20.6513 12.6722 20.8225 12.5808 20.9568 12.4464C21.0913 12.3121 21.1828 12.1409 21.2199 11.9546C21.2571 11.7682 21.2382 11.575 21.1655 11.3994C21.0929 11.2238 20.9698 11.0737 20.8119 10.968C20.654 10.8624 20.4683 10.8059 20.2783 10.8059H20.2779C20.0232 10.806 19.779 10.9072 19.5989 11.0873C19.4188 11.2674 19.3176 11.5116 19.3173 11.7663ZM12.7709 22.5585C11.9905 22.523 11.5662 22.3929 11.2843 22.2831C10.9106 22.1375 10.644 21.9642 10.3636 21.6842C10.0832 21.4041 9.90969 21.1376 9.76486 20.7638C9.65494 20.4819 9.52497 20.0575 9.48949 19.2768C9.45067 18.4328 9.44291 18.1793 9.44291 16.041C9.44291 13.9027 9.4513 13.6499 9.48949 12.8052C9.525 12.0245 9.65599 11.6009 9.76486 11.3182C9.91035 10.9444 10.0836 10.6776 10.3636 10.3972C10.6436 10.1167 10.91 9.94315 11.2843 9.79825C11.5661 9.68834 11.9905 9.55829 12.7709 9.52282C13.6146 9.48399 13.8681 9.47623 16.0048 9.47623C18.1415 9.47623 18.3953 9.48465 19.2397 9.52282C20.0201 9.55836 20.4436 9.68935 20.7262 9.79825C21.1 9.94315 21.3666 10.1171 21.647 10.3972C21.9273 10.6773 22.1002 10.9444 22.2457 11.3182C22.3556 11.6001 22.4856 12.0245 22.5211 12.8052C22.5599 13.6499 22.5676 13.9027 22.5676 16.041C22.5676 18.1793 22.5599 18.4321 22.5211 19.2768C22.4856 20.0575 22.3549 20.4818 22.2457 20.7638C22.1002 21.1376 21.927 21.4043 21.647 21.6842C21.367 21.964 21.1 22.1375 20.7262 22.2831C20.4445 22.393 20.0201 22.523 19.2397 22.5585C18.396 22.5973 18.1425 22.6051 16.0048 22.6051C13.8671 22.6051 13.6144 22.5973 12.7709 22.5585ZM12.7046 8.08232C11.8524 8.12112 11.2701 8.2563 10.7616 8.45422C10.235 8.65863 9.78911 8.93284 9.34358 9.37778C8.89809 9.82272 8.62464 10.2694 8.4203 10.7962C8.22242 11.3052 8.0873 11.8873 8.04847 12.7397C8.00905 13.5935 8 13.8665 8 16.0409C8 18.2154 8.00905 18.4883 8.04847 19.3421C8.0873 20.1946 8.22242 20.7767 8.4203 21.2857C8.62464 21.8121 8.89816 22.2593 9.34358 22.7041C9.78904 23.1488 10.235 23.4227 10.7616 23.6276C11.2711 23.8256 11.8524 23.9607 12.7046 23.9996C13.5585 24.0384 13.831 24.048 16.0048 24.048C18.1787 24.048 18.4515 24.039 19.305 23.9996C20.1572 23.9607 20.7392 23.8256 21.248 23.6276C21.7743 23.4227 22.2205 23.149 22.666 22.7041C23.1115 22.2591 23.3844 21.8121 23.5893 21.2857C23.7872 20.7767 23.923 20.1945 23.9611 19.3421C23.9999 18.4877 24.009 18.2154 24.009 16.0409C24.009 13.8665 23.9999 13.5935 23.9611 12.7397C23.9223 11.8873 23.7872 11.3049 23.5893 10.7962C23.3844 10.2697 23.1108 9.82345 22.666 9.37778C22.2212 8.93214 21.7743 8.65863 21.2487 8.45422C20.7392 8.2563 20.1572 8.12049 19.3057 8.08232C18.4521 8.04349 18.1793 8.03381 16.0054 8.03381C13.8316 8.03381 13.5585 8.04283 12.7046 8.08232Z" fill="white"/>
<defs>
<linearGradient id="paint0_linear_511_1702" x1="31.385" y1="32" x2="-0.61504" y2="7.33185e-08" gradientUnits="userSpaceOnUse">
<stop stop-color="#FBE18A"/>
<stop offset="0.21" stop-color="#FCBB45"/>
<stop offset="0.38" stop-color="#F75274"/>
<stop offset="0.52" stop-color="#D53692"/>
<stop offset="0.74" stop-color="#8F39CE"/>
<stop offset="1" stop-color="#5B4FE9"/>
</linearGradient>
</defs>
</svg>
