<svg width="32" height="32" viewBox="0 0 32 32" fill="none" xmlns="http://www.w3.org/2000/svg">
<path d="M16 32C24.8366 32 32 24.8366 32 16C32 7.16344 24.8366 0 16 0C7.16344 0 0 7.16344 0 16C0 24.8366 7.16344 32 16 32Z" fill="#0A66C2"/>
<path d="M21.6594 21.6625H19.2844V17.9438C19.2844 17.0563 19.2656 15.9156 18.0469 15.9156C16.8094 15.9156 16.6187 16.8812 16.6187 17.8781V21.6625H14.2437V14.0125H16.525V15.0562H16.5562C16.875 14.4562 17.65 13.8219 18.8062 13.8219C21.2125 13.8219 21.6562 15.4063 21.6562 17.4656L21.6594 21.6625ZM11.5656 12.9656C10.8 12.9656 10.1875 12.3469 10.1875 11.5875C10.1875 10.8281 10.8031 10.2094 11.5656 10.2094C12.3281 10.2094 12.9438 10.8281 12.9438 11.5875C12.9438 12.3469 12.325 12.9656 11.5656 12.9656ZM12.7563 21.6625H10.375V14.0125H12.7563V21.6625ZM22.8469 8H9.18437C8.53125 8 8 8.51562 8 9.15625V22.875C8 23.5125 8.52812 24.0312 9.18437 24.0312H22.8438C23.4969 24.0312 24.0312 23.5156 24.0312 22.875V9.15625C24.0312 8.51562 23.4969 8 22.8469 8Z" fill="white"/>
</svg>
