<svg width="59" height="58" viewBox="0 0 59 58" fill="none" xmlns="http://www.w3.org/2000/svg">
<path d="M9.09229 8.16252C9.09229 3.65445 12.7468 -6.10352e-05 17.2549 -6.10352e-05C21.763 -6.10352e-05 25.4175 3.65445 25.4175 8.16252C25.4175 10.794 24.1723 13.1346 22.239 14.6273C22.1808 14.6702 22.123 14.7136 22.0656 14.7575C20.7166 15.7432 19.0537 16.3251 17.2549 16.3251C12.7468 16.3251 9.09229 12.6706 9.09229 8.16252Z" fill="#EB575A"/>
<path d="M36.7591 14.6273C36.8172 14.6702 36.875 14.7136 36.9324 14.7575C38.2814 15.7433 39.9445 16.3251 41.7432 16.3251C46.2514 16.3251 49.9057 12.6706 49.9057 8.16252C49.9057 3.65445 46.2514 -6.10352e-05 41.7432 -6.10352e-05C37.2351 -6.10352e-05 33.5806 3.65445 33.5806 8.16252C33.5806 10.794 34.8258 13.1346 36.7591 14.6273Z" fill="#EB575A"/>
<path d="M22.4294 20.4067C23.8407 17.9669 26.4787 16.3254 29.5 16.3254C32.5213 16.3254 35.1592 17.9669 36.5706 20.4067C37.2651 21.6073 37.6626 23.0012 37.6626 24.488C37.6626 28.996 34.0081 32.6505 29.5 32.6505C24.9919 32.6505 21.3374 28.996 21.3374 24.488C21.3374 23.0012 21.7349 21.6073 22.4294 20.4067Z" fill="#EB575A"/>
<path d="M7.05204 20.4068H17.9521C17.5008 21.6833 17.2554 23.057 17.2554 24.4881C17.2554 27.6239 18.4342 30.4845 20.373 32.6507H19.2959C14.8671 32.6507 11.0975 35.4724 9.68647 39.4158C8.29899 38.8514 7.01531 38.1139 5.87732 37.2005C2.80337 34.7332 0.930176 31.0838 0.930176 26.5287C0.930176 23.1478 3.67101 20.4068 7.05204 20.4068Z" fill="#EB575A"/>
<path d="M39.704 32.6507C44.1326 32.6507 47.9025 35.4724 49.3134 39.4158C50.7011 38.8514 51.9846 38.1139 53.1229 37.2005C56.1965 34.7332 58.0698 31.0838 58.0698 26.5287C58.0698 23.1477 55.3288 20.4068 51.9479 20.4068H41.048C41.499 21.6833 41.7447 23.057 41.7447 24.4881C41.7447 27.6239 40.5656 30.4845 38.627 32.6507H39.704Z" fill="#EB575A"/>
<path d="M45.3639 40.5197C45.6606 41.2392 45.8247 42.0277 45.8247 42.8542C45.8247 47.4093 43.9514 51.0588 40.8777 53.5259C37.8523 55.9543 33.7974 57.1387 29.4995 57.1387C25.2016 57.1387 21.1468 55.9543 18.1215 53.5259C15.0475 51.0588 13.1743 47.4093 13.1743 42.8542C13.1743 42.0277 13.3382 41.2392 13.6352 40.5197C14.5529 38.2966 16.7418 36.7322 19.2962 36.7322H39.7027C42.2572 36.7322 44.446 38.2966 45.3639 40.5197Z" fill="#EB575A"/>
</svg>
