<svg width="59" height="58" viewBox="0 0 59 58" fill="none" xmlns="http://www.w3.org/2000/svg">
<path d="M15.573 28.5694C16.2872 30.7121 16.6443 32.4977 16.6443 32.4977C19.5013 37.1402 23.0726 36.4259 23.0726 38.9258C23.0726 39.9971 22.3583 41.0685 21.2869 41.4256L29.5008 47.8537L37.7146 41.7827C36.6433 41.0685 35.929 40.3542 35.929 39.2829C35.929 36.4259 39.5003 37.4973 42.3573 32.8548C42.3573 32.8548 43.0715 31.4263 43.4286 28.9265C44.5 24.9982 45.5714 17.8559 45.2142 14.2847H39.8574C39.8574 13.2133 40.2145 12.142 40.2145 10.7135H44.1429C43.0715 5.71387 40.5716 3.57117 36.2861 2.49982C34.5005 1.07135 32.0007 0 29.5008 0C27.0009 0 24.5011 1.07135 22.7154 2.49982C18.4299 3.57117 16.2872 5.71387 14.8587 10.7135H18.7871C18.7871 12.142 19.1442 13.2133 19.5013 14.2847H13.7873C13.4302 17.8559 14.5016 24.9982 15.573 28.5694ZM40.9288 30.3549C40.5716 30.7121 40.2145 31.0692 39.8574 31.4263L38.0718 33.569C36.6433 35.3546 35.2148 36.4259 33.072 36.7831L31.6435 37.1402C30.215 37.4973 28.4294 37.4973 26.6438 37.1402L25.2153 36.7831C23.0726 36.0688 21.2869 34.9975 19.8584 32.8548L19.1442 31.4263C18.7871 31.0692 18.4299 30.7121 18.0728 30.3549L15.573 28.5694L26.6438 25.3553C28.4294 24.9982 30.215 24.6411 32.0007 25.3553L43.4286 28.5694L40.9288 30.3549ZM22.3583 10.7135C22.3583 6.78522 25.5724 3.57117 29.5008 3.57117C33.4292 3.57117 36.6433 6.78522 36.6433 10.7135C36.6433 14.6418 33.4292 17.8559 29.5008 17.8559C25.5724 17.8559 22.3583 14.6418 22.3583 10.7135Z" fill="#EB575A"/>
<path d="M56.2844 50.7106C51.6418 42.1398 46.9992 43.5683 42.3566 42.8541C42.3566 42.8541 42.3566 42.8541 41.9994 42.8541L29.5001 52.1391L17.0008 42.8541C17.0008 42.8541 17.0008 42.8541 16.6436 42.8541C11.6439 43.2112 7.35841 42.1398 2.7158 50.7106C2.00155 52.1391 1.2873 54.6389 0.930176 57.1387H58.07C57.7129 54.6389 56.9986 52.1391 56.2844 50.7106Z" fill="#EB575A"/>
</svg>
