<svg width="32" height="32" viewBox="0 0 32 32" fill="none" xmlns="http://www.w3.org/2000/svg">
<path d="M32 16C32 7.16344 24.8366 0 16 0C7.16344 0 0 7.16344 0 16C0 24.8366 7.16344 32 16 32C24.8366 32 32 24.8366 32 16Z" fill="#00D95F"/>
<path d="M8 23.4074L9.14797 19.139C8.22217 17.4762 7.92804 15.5359 8.31954 13.6742C8.71104 11.8124 9.76192 10.154 11.2793 9.00325C12.7968 7.85259 14.6789 7.2868 16.5805 7.40972C18.4821 7.53263 20.2754 8.33604 21.6315 9.67249C22.9877 11.0089 23.8155 12.7888 23.9633 14.6854C24.111 16.5821 23.5687 18.4683 22.4358 19.998C21.3029 21.5277 19.6555 22.5982 17.7958 23.0131C15.9362 23.428 13.989 23.1595 12.3117 22.2569L8 23.4074ZM12.5195 20.6596L12.7862 20.8175C14.0011 21.5364 15.4202 21.8339 16.8222 21.6637C18.2242 21.4934 19.5304 20.8649 20.5372 19.8761C21.5441 18.8873 22.195 17.5938 22.3886 16.1971C22.5822 14.8004 22.3075 13.379 21.6075 12.1544C20.9074 10.9299 19.8212 9.97085 18.5182 9.42687C17.2152 8.88293 15.7686 8.78454 14.4038 9.1471C13.0389 9.50963 11.8326 10.3128 10.9726 11.4313C10.1127 12.5498 9.64753 13.9208 9.64963 15.3308C9.64851 16.4999 9.97235 17.6464 10.5852 18.6427L10.7524 18.9179L10.1106 21.3003L12.5195 20.6596Z" fill="white"/>
<path fill-rule="evenodd" clip-rule="evenodd" d="M18.9913 16.427C18.835 16.3011 18.652 16.2126 18.4561 16.168C18.2603 16.1234 18.0569 16.1241 17.8614 16.1698C17.5677 16.2917 17.3778 16.7519 17.188 16.982C17.148 17.0372 17.0892 17.0759 17.0226 17.0908C16.956 17.1058 16.8863 17.096 16.8265 17.0632C15.7509 16.6427 14.8495 15.8715 14.2684 14.8749C14.2188 14.8127 14.1954 14.7337 14.2029 14.6546C14.2106 14.5755 14.2486 14.5024 14.309 14.4507C14.5208 14.2415 14.6762 13.9823 14.761 13.6972C14.7798 13.3828 14.7077 13.0695 14.5531 12.7948C14.4336 12.4097 14.2062 12.0669 13.8978 11.8067C13.7387 11.7353 13.5623 11.7113 13.3899 11.7377C13.2175 11.7642 13.0564 11.8398 12.9261 11.9556C12.6998 12.1504 12.5203 12.3935 12.4006 12.6668C12.2809 12.9401 12.2242 13.2367 12.2346 13.5348C12.2353 13.7022 12.2566 13.8689 12.2979 14.0311C12.4028 14.4209 12.5642 14.7933 12.7769 15.1366C12.9304 15.3995 13.0979 15.6541 13.2786 15.8991C13.8659 16.7041 14.6042 17.3875 15.4525 17.9115C15.8782 18.1778 16.3331 18.3943 16.8084 18.5567C17.302 18.7801 17.8471 18.8659 18.3857 18.8049C18.6925 18.7585 18.9833 18.6376 19.2323 18.4526C19.4814 18.2678 19.6811 18.0246 19.8139 17.7445C19.8919 17.5754 19.9156 17.3862 19.8816 17.2031C19.8003 16.8286 19.2986 16.6075 18.9913 16.427Z" fill="white"/>
</svg>
