<svg width="59" height="58" viewBox="0 0 59 58" fill="none" xmlns="http://www.w3.org/2000/svg">
<path fill-rule="evenodd" clip-rule="evenodd" d="M58.07 0V43.6943H49.9072V53.7776H56.0293V57.1387H11.1337C8.15429 57.1387 5.29729 56.0632 3.3382 54.181C1.78729 52.6685 0.930176 50.719 0.930176 48.736V8.40276C0.930176 3.76443 5.50136 0 11.1337 0L58.07 0ZM45.8258 43.6943H11.5827C8.35836 43.6943 5.583 45.5093 5.09322 47.8621C5.05239 48.131 5.01159 48.3998 5.01159 48.6351V48.736C5.01159 49.946 5.50136 51.0887 6.4809 51.9962C7.62372 53.139 9.3379 53.7776 11.1337 53.7776H45.8258V50.4165H9.58277V47.0554H45.8258V43.6943ZM43.7851 26.8888H15.2151V30.2499H43.785L43.7851 26.8888ZM45.8258 10.0833H13.1744V23.5277H45.8258V10.0833ZM17.2559 20.1666H41.7444V13.4444H17.2559V20.1666Z" fill="#EB575A"/>
</svg>
