<svg width="32" height="32" viewBox="0 0 32 32" fill="none" xmlns="http://www.w3.org/2000/svg">
<path d="M16 32C24.8366 32 32 24.8366 32 16C32 7.16344 24.8366 0 16 0C7.16344 0 0 7.16344 0 16C0 24.8366 7.16344 32 16 32Z" fill="#E43535"/>
<path fill-rule="evenodd" clip-rule="evenodd" d="M21.1764 21.3333H11.3569C10.0973 21.3333 9.06665 20.2804 9.06665 18.9935V13.5397C9.06665 12.2529 10.0973 11.2 11.3569 11.2H21.1764C22.436 11.2 23.4667 12.2529 23.4667 13.5397V18.9935C23.4667 20.2804 22.436 21.3333 21.1764 21.3333ZM14.959 14.3069V18.6347L18.8799 16.4003L14.959 14.3069Z" fill="white"/>
</svg>
