<svg xmlns="http://www.w3.org/2000/svg" xml:space="preserve" id="Layer_1" x="0" y="0" style="enable-background:new 0 0 147.7 83.7" version="1.1" viewBox="0 0 147.7 83.7"><style>.st0{fill:#e83e4e}</style><path d="M9.1 12.9S-12.5 33.3 10.9 53c19 16 52.3 18 52.3 18s-7.8 7.3-4.3 11 5.3 1.3 13-7.5 9-8.8-.5-18.5-11.3-8.5-12.3-6.8-3.3 5 .3 8.3 4.8 4.3-1.5 2.8S32 56.1 18.4 46.5C8.3 39.3 8.2 30.7 9.7 27.2s8.2-11.4 12.8-13.1c2.8-1-.3-7.9-3.1-7.7s-6.7 2.1-10.3 6.5zM129.3 17.8s12.3 9.3 7.2 18.5c-4.1 7.3-8.5 11.5-18.4 16.3s-27 7.2-27 7.2-4.2 1.8-2.5 7 7.2 2.5 20.2-.7 30.3-13.5 34.3-21.1 7.8-14.9 0-25.6c-7.8-10.7-10.5-11.2-12.7-10.3-2.1.9-4.6 4.5-1.1 8.7z" class="st0"/><path d="M54.5 25.4c0 6-4.6 11.5-14.8 11.5-5 0-10.1-1.4-13.6-3.8l3.2-6.3c2.7 2 6.5 3.2 10.2 3.2 4.1 0 6.7-1.7 6.7-4.6 0-2.7-2-4.4-6.7-4.4h-3.8v-5.5L43 7.2H27.9V.6h25V6l-8.1 9.2c6.5 1 9.7 4.9 9.7 10.2zM87.8 25c0 7.3-6 11.9-13.5 11.9-9.8 0-16-6.2-16-17.7C58.4 6.9 65.8 0 76.6 0c3.8 0 7.4.9 9.9 2.4l-3.1 6.1c-2-1.3-4.3-1.8-6.7-1.8-6 0-9.8 3.5-10 10.4 2.1-2.1 5.1-3.2 8.8-3.2 6.9 0 12.3 4.4 12.3 11.1zm-8 .4c0-3.3-2.4-5.4-6.1-5.4-3.6 0-6.2 2.2-6.2 5.4 0 3.1 2.3 5.3 6.3 5.3 3.6.1 6-2 6-5.3zM90.9 18.5C90.9 6.7 97.4 0 106.1 0c8.8 0 15.3 6.7 15.3 18.5S114.9 37 106.1 37c-8.7-.1-15.2-6.8-15.2-18.5zm22.2 0c0-8.1-2.9-11.5-7-11.5s-6.9 3.4-6.9 11.5 2.9 11.5 6.9 11.5c4.2-.1 7-3.4 7-11.5z" class="st0"/></svg>