<svg width="36" height="37" viewBox="0 0 36 37" fill="none" xmlns="http://www.w3.org/2000/svg">
<path d="M30 0.499939H6C4.4087 0.499939 2.88258 1.13208 1.75736 2.2573C0.632141 3.38251 0 4.90864 0 6.49993V30.4999C0 32.0912 0.632141 33.6173 1.75736 34.7425C2.88258 35.8678 4.4087 36.4999 6 36.4999H30C31.5913 36.4999 33.1174 35.8678 34.2426 34.7425C35.3679 33.6173 36 32.0912 36 30.4999V6.49993C36 4.90864 35.3679 3.38251 34.2426 2.2573C33.1174 1.13208 31.5913 0.499939 30 0.499939ZM26.6 13.7199L17.46 25.7199C17.2737 25.9619 17.0344 26.1581 16.7605 26.2933C16.4866 26.4285 16.1854 26.4992 15.88 26.4999C15.5762 26.5015 15.276 26.434 15.0023 26.3023C14.7285 26.1706 14.4883 25.9783 14.3 25.7399L9.42 19.5199C9.25847 19.3124 9.1394 19.0752 9.06957 18.8217C8.99974 18.5681 8.98053 18.3034 9.01303 18.0424C9.04553 17.7815 9.12911 17.5295 9.25899 17.3009C9.38887 17.0723 9.56251 16.8714 9.77 16.7099C10.189 16.3837 10.7205 16.2373 11.2475 16.303C11.5084 16.3355 11.7604 16.419 11.989 16.5489C12.2177 16.6788 12.4185 16.8524 12.58 17.0599L15.84 21.2199L23.4 11.2199C23.5602 11.0098 23.7602 10.8333 23.9887 10.7005C24.2171 10.5677 24.4694 10.4812 24.7313 10.4459C24.9932 10.4106 25.2594 10.4272 25.5148 10.4948C25.7703 10.5625 26.0099 10.6797 26.22 10.8399C26.4301 11.0001 26.6066 11.2002 26.7394 11.4286C26.8722 11.657 26.9588 11.9094 26.994 12.1712C27.0293 12.4331 27.0127 12.6993 26.9451 12.9548C26.8775 13.2102 26.7602 13.4498 26.6 13.6599V13.7199Z" fill="#EB575A"/>
</svg>
